<svg id="visual" viewBox="0 0 960 540" width="960" height="540" xmlns="http://www.w3.org/2000/svg" xmlns:xlink="http://www.w3.org/1999/xlink" version="1.1"><rect x="0" y="0" width="960" height="540" fill="#9d104b"></rect><defs><linearGradient id="grad1_0" x1="43.8%" y1="0%" x2="100%" y2="100%"><stop offset="14.444444444444446%" stop-color="#9d104b" stop-opacity="1"></stop><stop offset="85.55555555555554%" stop-color="#9d104b" stop-opacity="1"></stop></linearGradient></defs><defs><linearGradient id="grad2_0" x1="0%" y1="0%" x2="56.3%" y2="100%"><stop offset="14.444444444444446%" stop-color="#9d104b" stop-opacity="1"></stop><stop offset="85.55555555555554%" stop-color="#9d104b" stop-opacity="1"></stop></linearGradient></defs><g transform="translate(960, 0)"><path d="M0 486C-62.3 465.2 -124.7 444.4 -169.9 410.2C-215.1 376 -243.2 328.5 -292.7 292.7C-342.3 256.9 -413.2 232.8 -449 186C-484.8 139.1 -485.4 69.6 -486 0L0 0Z" fill="#FBAE3C"></path></g><g transform="translate(0, 540)"><path d="M0 -486C49.4 -444.5 98.7 -403 159.6 -385.3C220.4 -367.6 292.7 -373.7 343.7 -343.7C394.6 -313.6 424.2 -247.4 444.4 -184.1C464.6 -120.8 475.3 -60.4 486 0L0 0Z" fill="#FBAE3C"></path></g></svg>