<svg version="1.2" xmlns="http://www.w3.org/2000/svg" viewBox="0 0 562 328" width="562" height="328">
	<title>blob-scene-haikei (2)-svg</title>
	<style>
		.s0 { fill: #fbae3c } 
		.s1 { fill: #9d104b } 
	</style>
	<path id="Layer" class="s0" d="m-199-106h960v540h-960z"/>
	<g id="Layer">
		<path id="Layer" class="s1" d="m761 380c-62.3-20.8-124.7-41.6-169.9-75.8-45.2-34.2-73.3-81.7-122.8-117.5-49.6-35.8-120.5-59.9-156.3-106.7-35.8-46.9-36.4-116.4-37-186h486z"/>
	</g>
	<g id="Layer">
		<path id="Layer" class="s1" d="m-199-52c49.4 41.5 98.7 83 159.6 100.7 60.8 17.7 133.1 11.6 184.1 41.6 50.9 30.1 80.5 96.3 100.7 159.6 20.2 63.3 30.9 123.7 41.6 184.1h-486z"/>
	</g>
</svg>