<svg id="visual" viewBox="0 0 900 600" width="900" height="600" xmlns="http://www.w3.org/2000/svg" xmlns:xlink="http://www.w3.org/1999/xlink" version="1.1">
    <rect x="0" y="0" width="900" height="600" fill="#001220"></rect>
    <path d="M0 286L16.7 298.5C33.3 311 66.7 336 100 338C133.3 340 166.7 319 200 317.5C233.3 316 266.7 334 300 339C333.3 344 366.7 336 400 350.7C433.3 365.3 466.7 402.7 500 407.3C533.3 412 566.7 384 600 356.7C633.3 329.3 666.7 302.7 700 294.2C733.3 285.7 766.7 295.3 800 300.7C833.3 306 866.7 307 883.3 307.5L900 308L900 601L883.3 601C866.7 601 833.3 601 800 601C766.7 601 733.3 601 700 601C666.7 601 633.3 601 600 601C566.7 601 533.3 601 500 601C466.7 601 433.3 601 400 601C366.7 601 333.3 601 300 601C266.7 601 233.3 601 200 601C166.7 601 133.3 601 100 601C66.7 601 33.3 601 16.7 601L0 601Z" fill="#c62368"></path>
    <path d="M0 382L16.7 381.2C33.3 380.3 66.7 378.7 100 396.2C133.3 413.7 166.7 450.3 200 469C233.3 487.7 266.7 488.3 300 468.7C333.3 449 366.7 409 400 395.2C433.3 381.3 466.7 393.7 500 414.2C533.3 434.7 566.7 463.3 600 472.8C633.3 482.3 666.7 472.7 700 471C733.3 469.3 766.7 475.7 800 464.2C833.3 452.7 866.7 423.3 883.3 408.7L900 394L900 601L883.3 601C866.7 601 833.3 601 800 601C766.7 601 733.3 601 700 601C666.7 601 633.3 601 600 601C566.7 601 533.3 601 500 601C466.7 601 433.3 601 400 601C366.7 601 333.3 601 300 601C266.7 601 233.3 601 200 601C166.7 601 133.3 601 100 601C66.7 601 33.3 601 16.7 601L0 601Z" fill="#da3f67"></path>
    <path d="M0 504L16.7 506.2C33.3 508.3 66.7 512.7 100 496.7C133.3 480.7 166.7 444.3 200 428.3C233.3 412.3 266.7 416.7 300 433.5C333.3 450.3 366.7 479.7 400 489.8C433.3 500 466.7 491 500 496.7C533.3 502.3 566.7 522.7 600 514C633.3 505.3 666.7 467.7 700 446.7C733.3 425.7 766.7 421.3 800 430C833.3 438.7 866.7 460.3 883.3 471.2L900 482L900 601L883.3 601C866.7 601 833.3 601 800 601C766.7 601 733.3 601 700 601C666.7 601 633.3 601 600 601C566.7 601 533.3 601 500 601C466.7 601 433.3 601 400 601C366.7 601 333.3 601 300 601C266.7 601 233.3 601 200 601C166.7 601 133.3 601 100 601C66.7 601 33.3 601 16.7 601L0 601Z" fill="#eb5967"></path>
    <path d="M0 507L16.7 517.3C33.3 527.7 66.7 548.3 100 560C133.3 571.7 166.7 574.3 200 576C233.3 577.7 266.7 578.3 300 574.3C333.3 570.3 366.7 561.7 400 549.3C433.3 537 466.7 521 500 514.5C533.3 508 566.7 511 600 521.3C633.3 531.7 666.7 549.3 700 549C733.3 548.7 766.7 530.3 800 524.7C833.3 519 866.7 526 883.3 529.5L900 533L900 601L883.3 601C866.7 601 833.3 601 800 601C766.7 601 733.3 601 700 601C666.7 601 633.3 601 600 601C566.7 601 533.3 601 500 601C466.7 601 433.3 601 400 601C366.7 601 333.3 601 300 601C266.7 601 233.3 601 200 601C166.7 601 133.3 601 100 601C66.7 601 33.3 601 16.7 601L0 601Z" fill="#fa7268"></path>
</svg>