<svg id="visual" viewBox="0 0 960 540" width="960" height="540" xmlns="http://www.w3.org/2000/svg" xmlns:xlink="http://www.w3.org/1999/xlink" version="1.1"><path d="M0 174L10.7 168.5C21.3 163 42.7 152 64 149.3C85.3 146.7 106.7 152.3 128 157.8C149.3 163.3 170.7 168.7 192 167.7C213.3 166.7 234.7 159.3 256 144C277.3 128.7 298.7 105.3 320 100C341.3 94.7 362.7 107.3 384 115.5C405.3 123.7 426.7 127.3 448 135.3C469.3 143.3 490.7 155.7 512 152C533.3 148.3 554.7 128.7 576 127.8C597.3 127 618.7 145 640 153.2C661.3 161.3 682.7 159.7 704 155.2C725.3 150.7 746.7 143.3 768 145C789.3 146.7 810.7 157.3 832 160C853.3 162.7 874.7 157.3 896 157.3C917.3 157.3 938.7 162.7 949.3 165.3L960 168L960 0L949.3 0C938.7 0 917.3 0 896 0C874.7 0 853.3 0 832 0C810.7 0 789.3 0 768 0C746.7 0 725.3 0 704 0C682.7 0 661.3 0 640 0C618.7 0 597.3 0 576 0C554.7 0 533.3 0 512 0C490.7 0 469.3 0 448 0C426.7 0 405.3 0 384 0C362.7 0 341.3 0 320 0C298.7 0 277.3 0 256 0C234.7 0 213.3 0 192 0C170.7 0 149.3 0 128 0C106.7 0 85.3 0 64 0C42.7 0 21.3 0 10.7 0L0 0Z" fill="#4b208e"></path><path d="M0 228L10.7 223.5C21.3 219 42.7 210 64 206.3C85.3 202.7 106.7 204.3 128 207C149.3 209.7 170.7 213.3 192 212.5C213.3 211.7 234.7 206.3 256 192.8C277.3 179.3 298.7 157.7 320 151.3C341.3 145 362.7 154 384 162.2C405.3 170.3 426.7 177.7 448 184C469.3 190.3 490.7 195.7 512 190.2C533.3 184.7 554.7 168.3 576 169.2C597.3 170 618.7 188 640 195.2C661.3 202.3 682.7 198.7 704 191.5C725.3 184.3 746.7 173.7 768 173.7C789.3 173.7 810.7 184.3 832 189.7C853.3 195 874.7 195 896 195C917.3 195 938.7 195 949.3 195L960 195L960 166L949.3 163.3C938.7 160.7 917.3 155.3 896 155.3C874.7 155.3 853.3 160.7 832 158C810.7 155.3 789.3 144.7 768 143C746.7 141.3 725.3 148.7 704 153.2C682.7 157.7 661.3 159.3 640 151.2C618.7 143 597.3 125 576 125.8C554.7 126.7 533.3 146.3 512 150C490.7 153.7 469.3 141.3 448 133.3C426.7 125.3 405.3 121.7 384 113.5C362.7 105.3 341.3 92.7 320 98C298.7 103.3 277.3 126.7 256 142C234.7 157.3 213.3 164.7 192 165.7C170.7 166.7 149.3 161.3 128 155.8C106.7 150.3 85.3 144.7 64 147.3C42.7 150 21.3 161 10.7 166.5L0 172Z" fill="#361070"></path><path d="M0 260L10.7 256.5C21.3 253 42.7 246 64 243.3C85.3 240.7 106.7 242.3 128 242.3C149.3 242.3 170.7 240.7 192 236.2C213.3 231.7 234.7 224.3 256 212.5C277.3 200.7 298.7 184.3 320 181.7C341.3 179 362.7 190 384 196.3C405.3 202.7 426.7 204.3 448 208.8C469.3 213.3 490.7 220.7 512 215.3C533.3 210 554.7 192 576 193.8C597.3 195.7 618.7 217.3 640 224.5C661.3 231.7 682.7 224.3 704 217C725.3 209.7 746.7 202.3 768 203.2C789.3 204 810.7 213 832 218.5C853.3 224 874.7 226 896 225.2C917.3 224.3 938.7 220.7 949.3 218.8L960 217L960 193L949.3 193C938.7 193 917.3 193 896 193C874.7 193 853.3 193 832 187.7C810.7 182.3 789.3 171.7 768 171.7C746.7 171.7 725.3 182.3 704 189.5C682.7 196.7 661.3 200.3 640 193.2C618.7 186 597.3 168 576 167.2C554.7 166.3 533.3 182.7 512 188.2C490.7 193.7 469.3 188.3 448 182C426.7 175.7 405.3 168.3 384 160.2C362.7 152 341.3 143 320 149.3C298.7 155.7 277.3 177.3 256 190.8C234.7 204.3 213.3 209.7 192 210.5C170.7 211.3 149.3 207.7 128 205C106.7 202.3 85.3 200.7 64 204.3C42.7 208 21.3 217 10.7 221.5L0 226Z" fill="#250859"></path><path d="M0 325L10.7 317.8C21.3 310.7 42.7 296.3 64 288.2C85.3 280 106.7 278 128 277C149.3 276 170.7 276 192 273.3C213.3 270.7 234.7 265.3 256 255.5C277.3 245.7 298.7 231.3 320 229.5C341.3 227.7 362.7 238.3 384 246.5C405.3 254.7 426.7 260.3 448 268.5C469.3 276.7 490.7 287.3 512 284.5C533.3 281.7 554.7 265.3 576 261.7C597.3 258 618.7 267 640 271.5C661.3 276 682.7 276 704 273.3C725.3 270.7 746.7 265.3 768 262.7C789.3 260 810.7 260 832 260C853.3 260 874.7 260 896 262.7C917.3 265.3 938.7 270.7 949.3 273.3L960 276L960 215L949.3 216.8C938.7 218.7 917.3 222.3 896 223.2C874.7 224 853.3 222 832 216.5C810.7 211 789.3 202 768 201.2C746.7 200.3 725.3 207.7 704 215C682.7 222.3 661.3 229.7 640 222.5C618.7 215.3 597.3 193.7 576 191.8C554.7 190 533.3 208 512 213.3C490.7 218.7 469.3 211.3 448 206.8C426.7 202.3 405.3 200.7 384 194.3C362.7 188 341.3 177 320 179.7C298.7 182.3 277.3 198.7 256 210.5C234.7 222.3 213.3 229.7 192 234.2C170.7 238.7 149.3 240.3 128 240.3C106.7 240.3 85.3 238.7 64 241.3C42.7 244 21.3 251 10.7 254.5L0 258Z" fill="#1d0c4a"></path><path d="M0 347L10.7 340.7C21.3 334.3 42.7 321.7 64 318.8C85.3 316 106.7 323 128 322C149.3 321 170.7 312 192 310.3C213.3 308.7 234.7 314.3 256 308.2C277.3 302 298.7 284 320 279.5C341.3 275 362.7 284 384 289.3C405.3 294.7 426.7 296.3 448 300.8C469.3 305.3 490.7 312.7 512 311.8C533.3 311 554.7 302 576 302C597.3 302 618.7 311 640 318.2C661.3 325.3 682.7 330.7 704 327C725.3 323.3 746.7 310.7 768 304.3C789.3 298 810.7 298 832 298C853.3 298 874.7 298 896 301.7C917.3 305.3 938.7 312.7 949.3 316.3L960 320L960 274L949.3 271.3C938.7 268.7 917.3 263.3 896 260.7C874.7 258 853.3 258 832 258C810.7 258 789.3 258 768 260.7C746.7 263.3 725.3 268.7 704 271.3C682.7 274 661.3 274 640 269.5C618.7 265 597.3 256 576 259.7C554.7 263.3 533.3 279.7 512 282.5C490.7 285.3 469.3 274.7 448 266.5C426.7 258.3 405.3 252.7 384 244.5C362.7 236.3 341.3 225.7 320 227.5C298.7 229.3 277.3 243.7 256 253.5C234.7 263.3 213.3 268.7 192 271.3C170.7 274 149.3 274 128 275C106.7 276 85.3 278 64 286.2C42.7 294.3 21.3 308.7 10.7 315.8L0 323Z" fill="#1c0c47"></path><path d="M0 390L10.7 383.7C21.3 377.3 42.7 364.7 64 360.2C85.3 355.7 106.7 359.3 128 355.7C149.3 352 170.7 341 192 338.3C213.3 335.7 234.7 341.3 256 336.8C277.3 332.3 298.7 317.7 320 314C341.3 310.3 362.7 317.7 384 323.2C405.3 328.7 426.7 332.3 448 337.7C469.3 343 490.7 350 512 347.3C533.3 344.7 554.7 332.3 576 332.3C597.3 332.3 618.7 344.7 640 350.8C661.3 357 682.7 357 704 354.3C725.3 351.7 746.7 346.3 768 343.7C789.3 341 810.7 341 832 338.3C853.3 335.7 874.7 330.3 896 333C917.3 335.7 938.7 346.3 949.3 351.7L960 357L960 318L949.3 314.3C938.7 310.7 917.3 303.3 896 299.7C874.7 296 853.3 296 832 296C810.7 296 789.3 296 768 302.3C746.7 308.7 725.3 321.3 704 325C682.7 328.7 661.3 323.3 640 316.2C618.7 309 597.3 300 576 300C554.7 300 533.3 309 512 309.8C490.7 310.7 469.3 303.3 448 298.8C426.7 294.3 405.3 292.7 384 287.3C362.7 282 341.3 273 320 277.5C298.7 282 277.3 300 256 306.2C234.7 312.3 213.3 306.7 192 308.3C170.7 310 149.3 319 128 320C106.7 321 85.3 314 64 316.8C42.7 319.7 21.3 332.3 10.7 338.7L0 345Z" fill="#1d0c4a"></path><path d="M0 465L10.7 457.8C21.3 450.7 42.7 436.3 64 431C85.3 425.7 106.7 429.3 128 434.8C149.3 440.3 170.7 447.7 192 448.5C213.3 449.3 234.7 443.7 256 439.2C277.3 434.7 298.7 431.3 320 426.8C341.3 422.3 362.7 416.7 384 422C405.3 427.3 426.7 443.7 448 447.3C469.3 451 490.7 442 512 434.8C533.3 427.7 554.7 422.3 576 427.7C597.3 433 618.7 449 640 456.2C661.3 463.3 682.7 461.7 704 454.5C725.3 447.3 746.7 434.7 768 429.3C789.3 424 810.7 426 832 424.2C853.3 422.3 874.7 416.7 896 417.5C917.3 418.3 938.7 425.7 949.3 429.3L960 433L960 355L949.3 349.7C938.7 344.3 917.3 333.7 896 331C874.7 328.3 853.3 333.7 832 336.3C810.7 339 789.3 339 768 341.7C746.7 344.3 725.3 349.7 704 352.3C682.7 355 661.3 355 640 348.8C618.7 342.7 597.3 330.3 576 330.3C554.7 330.3 533.3 342.7 512 345.3C490.7 348 469.3 341 448 335.7C426.7 330.3 405.3 326.7 384 321.2C362.7 315.7 341.3 308.3 320 312C298.7 315.7 277.3 330.3 256 334.8C234.7 339.3 213.3 333.7 192 336.3C170.7 339 149.3 350 128 353.7C106.7 357.3 85.3 353.7 64 358.2C42.7 362.7 21.3 375.3 10.7 381.7L0 388Z" fill="#250859"></path><path d="M0 487L10.7 482.5C21.3 478 42.7 469 64 464.5C85.3 460 106.7 460 128 464.5C149.3 469 170.7 478 192 478C213.3 478 234.7 469 256 464.5C277.3 460 298.7 460 320 459.2C341.3 458.3 362.7 456.7 384 462C405.3 467.3 426.7 479.7 448 481.3C469.3 483 490.7 474 512 468.7C533.3 463.3 554.7 461.7 576 467.2C597.3 472.7 618.7 485.3 640 489.8C661.3 494.3 682.7 490.7 704 484.3C725.3 478 746.7 469 768 464.5C789.3 460 810.7 460 832 457.3C853.3 454.7 874.7 449.3 896 453C917.3 456.7 938.7 469.3 949.3 475.7L960 482L960 431L949.3 427.3C938.7 423.7 917.3 416.3 896 415.5C874.7 414.7 853.3 420.3 832 422.2C810.7 424 789.3 422 768 427.3C746.7 432.7 725.3 445.3 704 452.5C682.7 459.7 661.3 461.3 640 454.2C618.7 447 597.3 431 576 425.7C554.7 420.3 533.3 425.7 512 432.8C490.7 440 469.3 449 448 445.3C426.7 441.7 405.3 425.3 384 420C362.7 414.7 341.3 420.3 320 424.8C298.7 429.3 277.3 432.7 256 437.2C234.7 441.7 213.3 447.3 192 446.5C170.7 445.7 149.3 438.3 128 432.8C106.7 427.3 85.3 423.7 64 429C42.7 434.3 21.3 448.7 10.7 455.8L0 463Z" fill="#361070"></path><path d="M0 541L10.7 541C21.3 541 42.7 541 64 541C85.3 541 106.7 541 128 541C149.3 541 170.7 541 192 541C213.3 541 234.7 541 256 541C277.3 541 298.7 541 320 541C341.3 541 362.7 541 384 541C405.3 541 426.7 541 448 541C469.3 541 490.7 541 512 541C533.3 541 554.7 541 576 541C597.3 541 618.7 541 640 541C661.3 541 682.7 541 704 541C725.3 541 746.7 541 768 541C789.3 541 810.7 541 832 541C853.3 541 874.7 541 896 541C917.3 541 938.7 541 949.3 541L960 541L960 480L949.3 473.7C938.7 467.3 917.3 454.7 896 451C874.7 447.3 853.3 452.7 832 455.3C810.7 458 789.3 458 768 462.5C746.7 467 725.3 476 704 482.3C682.7 488.7 661.3 492.3 640 487.8C618.7 483.3 597.3 470.7 576 465.2C554.7 459.7 533.3 461.3 512 466.7C490.7 472 469.3 481 448 479.3C426.7 477.7 405.3 465.3 384 460C362.7 454.7 341.3 456.3 320 457.2C298.7 458 277.3 458 256 462.5C234.7 467 213.3 476 192 476C170.7 476 149.3 467 128 462.5C106.7 458 85.3 458 64 462.5C42.7 467 21.3 476 10.7 480.5L0 485Z" fill="#4b208e"></path></svg>